<?xml version="1.0" encoding="UTF-8"?>
<svg id="Capa_1" data-name="Capa 1" xmlns="http://www.w3.org/2000/svg" viewBox="0 0 1369.39 166.32">
  <defs>
    <style>
      .cls-1 {
        fill: #b3b3b3;
      }
    </style>
  </defs>
  <path class="cls-1" d="M16.52,103.45v-46.7H.9v-19.58h15.63V11.31h22.81v25.86h22.45v19.58h-22.45v43.47c0,6.82,2.51,9.52,9.52,9.52h12.93v19.58h-19.58c-17.6,0-25.68-8.44-25.68-25.86Z"/>
  <path class="cls-1" d="M69.69,3.59h22.81v44.54c5.57-6.65,14.19-12.03,28.02-12.03,20.48,0,37.18,10.96,37.18,42.03v51.19h-22.81v-49.21c0-16.16-6.65-24.96-20.12-24.97-14.55,0-22.27,9.52-22.27,25.87v48.31h-22.81V3.59Z"/>
  <path class="cls-1" d="M162.54,83.51c0-28.56,18.68-47.42,46.52-47.42s45.62,17.24,45.62,44.72c0,2.34,0,4.85-.18,7.54h-68.07v1.08c0,14.19,9.52,23.17,23.35,23.17,11.14,0,19.04-5.03,21.37-14.01h22.63c-3.05,17.6-19.04,31.79-42.93,31.79-30,0-48.32-18.68-48.32-46.88ZM231.69,72.74c-1.62-12.39-9.88-19.22-22.27-19.22-11.5,0-20.83,7.19-22.63,19.22h44.9Z"/>
  <path class="cls-1" d="M278.93,103.45c0-19.4,14.19-30.18,40.95-30.18h20.48v-5.03c0-9.52-6.47-14.91-18.32-14.91-10.6,0-17.42,4.67-18.68,12.03h-22.09c1.8-17.78,17.96-29.28,41.85-29.28,25.15,0,39.87,11.67,39.87,33.59v34.31c0,4.85,1.8,5.93,5.75,5.93h3.41v19.4h-11.85c-12.21,0-16.88-5.75-16.88-14.01v-.54c-6.11,9.34-15.63,15.63-30.17,15.63-20.12,0-34.31-9.7-34.31-26.94ZM340.35,91.42v-2.51h-21.01c-11.32,0-17.42,4.31-17.42,12.75,0,7.37,5.75,11.86,15.09,11.86,14.55,0,23.35-8.8,23.35-22.09Z"/>
  <path class="cls-1" d="M377.53,37.17h19.94l2.15,13.83c4.85-7.9,12.04-13.83,26.94-13.83h4.85v20.83h-9.52c-15.99,0-21.55,11.5-21.55,25.69v45.62h-22.81s0-92.14,0-92.14Z"/>
  <path class="cls-1" d="M451.71,103.45v-46.7h-15.63v-19.58h15.63V11.31h22.81v25.87h22.45v19.58h-22.45v43.46c0,6.83,2.51,9.52,9.52,9.52h12.93v19.58h-19.58c-17.6,0-25.68-8.44-25.68-25.87Z"/>
  <path class="cls-1" d="M520.5,83.34c0-28.38,19.22-47.24,47.96-47.24,28.74,0,47.96,18.86,47.96,47.24s-19.22,47.06-47.96,47.06-47.96-18.86-47.96-47.06ZM593.06,83.34c0-16.7-9.52-28.38-24.61-28.38s-24.61,11.68-24.61,28.38,9.52,28.2,24.61,28.2,24.61-11.67,24.61-28.2Z"/>
  <path class="cls-1" d="M629.88,56.75h-15.63v-19.58h15.63v-7.72c0-16.7,8.62-25.86,26.76-25.86h19.76v19.58h-15.99c-5.57,0-8.08,2.52-8.08,8.08v5.93h24.07v19.58h-23.71v72.56h-22.81V56.75Z"/>
  <path class="cls-1" d="M697.41,83.34c0-28.56,18.5-47.24,47.24-47.24,24.43,0,39.87,13.29,43.46,34.84h-23.89c-2.16-9.88-9.16-15.98-19.94-15.98-14.37,0-23.53,11.67-23.53,28.38s8.98,28.2,23.53,28.2c10.96,0,17.96-6.29,20.12-16.35h23.71c-3.41,21.73-19.76,35.21-44.18,35.21-28.92,0-46.52-18.14-46.52-47.06Z"/>
  <path class="cls-1" d="M790.44,83.34c0-28.38,19.22-47.24,47.96-47.24,28.74,0,47.96,18.86,47.96,47.24s-19.22,47.06-47.96,47.06-47.96-18.86-47.96-47.06ZM863.01,83.34c0-16.7-9.52-28.38-24.61-28.38s-24.61,11.67-24.61,28.38,9.52,28.2,24.61,28.2,24.61-11.67,24.61-28.2Z"/>
  <path class="cls-1" d="M891.38,88.37v-51.19h22.81v49.39c0,16.34,6.64,24.79,19.22,24.79,14.37,0,21.73-9.16,21.73-25.68v-48.5s22.81,0,22.81,0v92.14s-19.94,0-19.94,0l-2.16-11.85c-5.75,7.18-14.01,12.93-28.2,12.93-19.58,0-36.28-10.78-36.28-42.03Z"/>
  <path class="cls-1" d="M989.09,37.18h19.94l2.15,11.85c5.75-7.18,14.37-12.93,28.92-12.93,20.12,0,37,10.78,37,42.03v51.19h-22.81v-49.39c0-16.34-6.83-24.79-20.12-24.79-14.55,0-22.27,9.16-22.27,25.68v48.5h-22.81V37.18Z"/>
  <path class="cls-1" d="M1093.8,103.46v-46.7h-15.63v-19.58h15.63V11.31h22.81v25.87h22.45v19.58h-22.45v43.47c0,6.82,2.51,9.52,9.52,9.52h12.93v19.58h-19.58c-17.6,0-25.68-8.44-25.68-25.87Z"/>
  <path class="cls-1" d="M1146.42,12.57c0-7.19,5.39-12.57,12.75-12.57s12.75,5.39,12.75,12.57-5.57,12.57-12.75,12.57-12.75-5.39-12.75-12.57ZM1147.86,37.18h22.81v92.14h-22.81V37.18Z"/>
  <path class="cls-1" d="M1182.7,37.18h19.94l2.15,11.86c5.75-7.19,14.37-12.93,28.92-12.93,20.12,0,37,10.78,37,42.03v51.19h-22.81v-49.39c0-16.34-6.83-24.79-20.12-24.79-14.55,0-22.27,9.16-22.27,25.69v48.49h-22.81V37.18Z"/>
  <path class="cls-1" d="M1278.07,133.99h23.17c2.33,9.34,10.24,14.55,22.45,14.55,15.81,0,24.43-7.54,24.43-23.17v-9.88c-6.29,7.9-15.45,13.65-28.38,13.65-25.68,0-43.83-17.96-43.83-46.34s18.32-46.7,43.29-46.7c13.29,0,22.99,5.39,29.1,14.01l2.34-12.93h19.94v88.91c0,25.51-16.52,40.23-48.5,40.23-25.68,0-42.57-11.86-44-32.33ZM1347.94,82.98c0-16.71-9.7-28.02-24.25-28.02s-24.43,11.14-24.43,27.84,9.7,27.84,24.43,27.84,24.25-11.14,24.25-27.66Z"/>
</svg>